<svg xmlns="http://www.w3.org/2000/svg" width="36" height="36" viewBox="0 0 72 72">
  <path fill="none" stroke="#000" stroke-width="7" stroke-linecap="round" stroke-linejoin="round" d="M18 27c-7-8-4-17 4-17 6 0 9 4 10 9m18 0c1-5 4-9 10-9 8 0 11 9 4 17"/>
  <path fill="none" stroke="#000" stroke-width="7" stroke-linejoin="round" d="M15 39C15 23 24 15 36 15s21 8 21 24c0 14-9 23-21 23S15 53 15 39Z"/>
  <circle cx="28" cy="37" r="5" fill="#000"/>
  <circle cx="44" cy="37" r="5" fill="#000"/>
  <path fill="#000" d="M32 46c0-3 8-3 8 0 0 2-2 4-4 4s-4-2-4-4Z"/>
  <path fill="none" stroke="#000" stroke-width="4" stroke-linecap="round" d="M36 50v2m-7 1c3 4 11 4 14 0"/>
</svg>
